<svg xmlns="http://www.w3.org/2000/svg" viewBox="0 0 200 120" role="img" aria-labelledby="title desc">
  <title id="title">Taxi icon</title>
  <desc id="desc">Blue taxi silhouette with two wheels</desc>
  <defs>
    <filter id="glow" x="-50%" y="-50%" width="200%" height="200%">
      <feGaussianBlur stdDeviation="6" result="blur" />
      <feMerge>
        <feMergeNode in="blur" />
        <feMergeNode in="SourceGraphic" />
      </feMerge>
    </filter>
  </defs>
  <g fill="#0b4cab" filter="url(#glow)">
    <path d="M34 74c-5 0-8-3-8-8v-6h11l7-12c1-2 4-4 6-5l23-9c3-1 9-2 12-2h17c4 0 11 1 15 3l20 12c3 2 7 7 8 10l4 13h6c4 0 7 3 7 7v7H34z" />
    <rect x="87" y="30" width="26" height="10" rx="3" />
  </g>
  <g fill="#f8fafc">
    <path d="M66 55h26c2 0 3 1 3 3v5H63v-5c0-2 1-3 3-3z" fill="#eaf1ff" />
    <path d="M97 55h28c2 0 3 1 3 3v5h-31z" fill="#d8e6ff" />
  </g>
  <g fill="#0b4cab" stroke="#0b4cab" stroke-width="4">
    <circle cx="64" cy="86" r="12" />
    <circle cx="64" cy="86" r="6" fill="#f8fafc" />
    <circle cx="138" cy="86" r="12" />
    <circle cx="138" cy="86" r="6" fill="#f8fafc" />
  </g>
</svg>
